# xmcd
#
# Track frame offsets:
#	150
#	16627
#	40062
#	58215
#	80917
#	102795
#	122317
#	147132
#	175437
#
# Disc length: 2634 seconds
#
# Revision: 1
# Processed by: cddbd v1.5.1PL0 Copyright (c) Steve Scherf et al.
# Submitted via: CDex 1.50Beta5
#
DISCID=6e0a4809
DTITLE=安部恭弘 - MODERATO
DYEAR=1900
DGENRE=
TTITLE0=ジュリエット
TTITLE1=Line Is Busy
TTITLE2=グッバイは甘いリズムにのせて
TTITLE3=Rainy Day Girl
TTITLE4=You Can Change
TTITLE5=Music
TTITLE6=トパーズ色の月
TTITLE7=TIGHT UP
TTITLE8=彼の消息
EXTD=
EXTT0=
EXTT1=
EXTT2=
EXTT3=
EXTT4=
EXTT5=
EXTT6=
EXTT7=
EXTT8=
PLAYORDER=
